<svg width="512" height="512" xml:space="preserve" xmlns="http://www.w3.org/2000/svg"><g style="fill:#a0a5aa;fill-opacity:1" fill="#007bc1"><path d="M414.478 257.741c4.967 56.672-19.047 114.48-68.444 150.349-74.882 54.385-179.699 37.787-234.067-37.102-54.395-74.862-37.787-179.648 37.092-234.05 48.457-35.235 109.458-40.645 161.227-19.782C241.429 79.42 154.11 82.106 86.375 131.31c-93.593 67.994-114.358 199.02-46.368 292.6 68 93.609 198.987 114.351 292.606 46.34 68.884-50.041 98.254-134.237 81.865-212.508" style="stroke-width:3.35855;fill:#a0a5aa;fill-opacity:1" transform="translate(0 -34.981)"/><path d="M270.709 332.795c-28.736 20.88-68.995 14.512-89.882-14.237-20.87-28.743-14.512-69.028 14.247-89.908 28.756-20.877 69.012-14.53 89.882 14.257 20.913 28.749 14.512 68.974-14.247 89.888m108.32-126.701c-.91 10.955-6.375 21.444-15.934 28.373-17.49 12.698-41.924 8.833-54.62-8.625-12.705-17.505-8.812-41.945 8.652-54.607 9.172-6.693 20.262-8.712 30.566-6.71-46.035-41.21-116.095-46.254-168.122-8.47-59.896 43.486-73.186 127.356-29.66 187.245 43.504 59.897 127.35 73.213 187.25 29.676 53.384-38.747 69.693-109.535 41.867-166.882M438.179 170.258c13.965-10.163 17.071-29.74 6.905-43.691-10.163-13.965-29.71-17.078-43.691-6.916-13.962 10.167-17.051 29.727-6.905 43.692 10.15 13.968 29.682 17.081 43.691 6.915M501.662 116.934c11.194-8.114 13.7-23.755 5.535-34.962-8.118-11.157-23.762-13.622-34.942-5.511-11.167 8.114-13.633 23.755-5.552 34.928 8.141 11.191 23.809 13.673 34.96 5.545" style="stroke-width:3.35855;fill:#a0a5aa;fill-opacity:1" transform="translate(0 -34.981)"/></g></svg>