<?xml version="1.0" encoding="UTF-8" standalone="no"?>
<!-- Generator: Adobe Illustrator 16.0.0, SVG Export Plug-In . SVG Version: 6.00 Build 0)  -->

<svg
   version="1.1"
   id="Layer_1"
   x="0px"
   y="0px"
   width="1000"
   height="1000"
   viewBox="0 0 999.99994 999.99994"
   enable-background="new 0 0 960 560"
   xml:space="preserve"
   sodipodi:docname="icon.svg"
   inkscape:version="1.1.1 (c3084ef, 2021-09-22)"
   xmlns:inkscape="http://www.inkscape.org/namespaces/inkscape"
   xmlns:sodipodi="http://sodipodi.sourceforge.net/DTD/sodipodi-0.dtd"
   xmlns="http://www.w3.org/2000/svg"
   xmlns:svg="http://www.w3.org/2000/svg"><defs
   id="defs835" /><sodipodi:namedview
   id="namedview833"
   pagecolor="#ffffff"
   bordercolor="#666666"
   borderopacity="1.0"
   inkscape:pageshadow="2"
   inkscape:pageopacity="0.0"
   inkscape:pagecheckerboard="0"
   showgrid="false"
   units="px"
   inkscape:zoom="0.5"
   inkscape:cx="722"
   inkscape:cy="657"
   inkscape:window-width="1937"
   inkscape:window-height="939"
   inkscape:window-x="2676"
   inkscape:window-y="634"
   inkscape:window-maximized="0"
   inkscape:current-layer="Layer_1" />



<path
   fill="#007bc1"
   d="m 809.52688,435.07794 c 9.7017,110.68761 -37.19985,223.59239 -133.67925,293.6495 -146.25405,106.22048 -350.97431,73.8027 -457.162,-72.4645 C 112.44547,510.04823 144.88296,305.387 291.13047,199.13371 385.77316,130.31638 504.91618,119.74877 606.02668,160.49735 471.54066,86.793067 300.99618,92.040795 168.70106,188.13973 -14.096833,320.93995 -54.655175,576.85176 78.138475,759.62339 210.9518,942.45412 466.7849,982.96657 649.63528,850.13354 784.1738,752.39467 841.538,587.95069 809.52688,435.07794"
   id="path824"
   style="stroke-width:6.55966" /><path
   fill="#007bc1"
   d="m 528.72771,581.66654 c -56.12438,40.78138 -134.75498,28.34427 -175.54948,-27.80638 -40.76169,-56.13752 -28.34426,-134.82058 27.82606,-175.60195 56.16377,-40.77482 134.78779,-28.37707 175.54946,27.84574 40.84703,56.15064 28.3443,134.71563 -27.82604,175.56259 M 740.28973,334.20357 c -1.77773,21.39759 -12.45023,41.88339 -31.119,55.41596 -34.16273,24.80205 -81.88418,17.25189 -106.6797,-16.84519 -24.81518,-34.18893 -17.2125,-81.92353 16.89765,-106.65343 17.91442,-13.07339 39.57442,-17.01575 59.69947,-13.10619 -89.91322,-80.48696 -226.74765,-90.33956 -328.36323,-16.54345 -116.98488,84.93441 -142.94143,248.74211 -57.92831,365.71388 84.96722,116.98489 248.72902,142.99392 365.72047,57.9611 104.26567,-75.67874 136.11937,-213.93658 81.77265,-325.94268"
   id="path826"
   style="stroke-width:6.55966" /><path
   fill="#007bc1"
   d="m 855.81838,264.21205 c 27.27503,-19.84952 33.34268,-58.08574 13.48665,-85.33455 -19.84958,-27.27504 -58.02675,-33.35584 -85.33455,-13.50633 -27.2685,19.85607 -33.30338,58.05951 -13.48665,85.33455 19.82325,27.28161 57.97417,33.3624 85.33455,13.50633"
   id="path828"
   style="stroke-width:6.55966" /><path
   fill="#007bc1"
   d="m 979.8089,160.06441 c 21.8634,-15.84813 26.7569,-46.39644 10.81036,-68.286003 -15.85471,-21.791175 -46.40956,-26.605958 -68.24663,-10.764398 -21.8109,15.84813 -26.62567,46.396441 -10.84313,68.220411 15.90061,21.85677 46.50135,26.70436 68.2794,10.82999"
   id="path830"
   style="stroke-width:6.55966" />
</svg>
