<?xml version="1.0" encoding="UTF-8" standalone="no"?>
<!-- Generator: Adobe Illustrator 16.0.0, SVG Export Plug-In . SVG Version: 6.00 Build 0)  -->

<svg
   version="1.1"
   id="Layer_1"
   x="0px"
   y="0px"
   width="512"
   height="512"
   viewBox="0 0 511.99997 511.99997"
   enable-background="new 0 0 960 560"
   xml:space="preserve"
   sodipodi:docname="wp-twinfield-wp-admin-fresh-base.svg"
   inkscape:version="1.1.2 (b8e25be8, 2022-02-05)"
   xmlns:inkscape="http://www.inkscape.org/namespaces/inkscape"
   xmlns:sodipodi="http://sodipodi.sourceforge.net/DTD/sodipodi-0.dtd"
   xmlns="http://www.w3.org/2000/svg"
   xmlns:svg="http://www.w3.org/2000/svg"><defs
   id="defs835" /><sodipodi:namedview
   id="namedview833"
   pagecolor="#ffffff"
   bordercolor="#666666"
   borderopacity="1.0"
   inkscape:pageshadow="2"
   inkscape:pageopacity="0.0"
   inkscape:pagecheckerboard="0"
   showgrid="false"
   units="px"
   inkscape:zoom="0.5"
   inkscape:cx="366"
   inkscape:cy="657"
   inkscape:window-width="1937"
   inkscape:window-height="939"
   inkscape:window-x="2675"
   inkscape:window-y="605"
   inkscape:window-maximized="0"
   inkscape:current-layer="Layer_1" />



<g
   id="g915"
   transform="translate(0,-34.981453)"
   style="fill:#a0a5aa;fill-opacity:1"><path
     fill="#007bc1"
     d="m 414.47775,257.74136 c 4.96727,56.67205 -19.04632,114.4793 -68.44377,150.34854 C 271.15191,462.47478 166.33513,445.87688 111.96704,370.98808 57.572078,296.12615 74.180072,191.3396 149.0588,136.93792 197.51585,101.70344 258.51708,96.292827 310.28565,117.1561 241.42881,79.419507 154.11004,82.106344 86.374939,131.309 -7.2175802,199.30271 -27.983451,330.32955 40.006897,423.90863 c 68.000423,93.60933 198.986963,114.3517 292.606353,46.34119 68.88373,-50.0423 98.2542,-134.23761 81.8645,-212.50846"
     id="path824"
     style="stroke-width:3.35855;fill:#a0a5aa;fill-opacity:1" /><path
     fill="#007bc1"
     d="m 270.70858,332.79472 c -28.73568,20.88007 -68.99455,14.51227 -89.88133,-14.23687 -20.86999,-28.74241 -14.51226,-69.02813 14.24694,-89.90819 28.75585,-20.87671 69.01135,-14.52906 89.88132,14.25702 20.91368,28.74912 14.51228,68.9744 -14.24693,89.88804 M 379.02833,206.09368 c -0.9102,10.95557 -6.37452,21.4443 -15.93293,28.37297 -17.49131,12.69865 -41.92469,8.83297 -54.62,-8.62473 -12.70537,-17.50474 -8.8128,-41.94485 8.6516,-54.60656 9.17218,-6.69357 20.2621,-8.71206 30.56612,-6.71037 -46.03556,-41.20932 -116.09479,-46.25385 -168.12197,-8.47024 -59.89625,43.48641 -73.18601,127.35595 -29.65929,187.2455 43.50322,59.89626 127.34926,73.21288 187.24888,29.67608 53.38402,-38.74751 69.69311,-109.53553 41.86759,-166.88265"
     id="path826"
     style="stroke-width:3.35855;fill:#a0a5aa;fill-opacity:1" /><path
     fill="#007bc1"
     d="m 438.179,170.25802 c 13.96481,-10.16295 17.07145,-29.73989 6.90516,-43.69128 -10.16298,-13.96482 -29.70969,-17.07819 -43.69128,-6.91524 -13.96148,10.1663 -17.05133,29.72646 -6.90517,43.69128 10.1495,13.96819 29.68278,17.08155 43.69129,6.91524"
     id="path828"
     style="stroke-width:3.35855;fill:#a0a5aa;fill-opacity:1" /><path
     fill="#007bc1"
     d="m 501.66214,116.93443 c 11.19407,-8.11424 13.69954,-23.754973 5.53491,-34.962429 -8.11761,-11.157081 -23.7617,-13.62225 -34.94227,-5.511371 -11.16719,8.114242 -13.63235,23.75498 -5.55169,34.92885 8.14111,11.19067 23.80869,13.67263 34.95905,5.54495"
     id="path830"
     style="stroke-width:3.35855;fill:#a0a5aa;fill-opacity:1" /></g>
</svg>
